<?xml version="1.0" encoding="utf-8"?>
<!-- Svg Vector Icons : http://www.onlinewebfonts.com/icon -->
<!DOCTYPE svg PUBLIC "-//W3C//DTD SVG 1.1//EN" "http://www.w3.org/Graphics/SVG/1.1/DTD/svg11.dtd">
<svg version="1.1" xmlns="http://www.w3.org/2000/svg" xmlns:xlink="http://www.w3.org/1999/xlink" x="0px" y="0px" viewBox="0 0 1000 1000" enable-background="new 0 0 1000 1000" xml:space="preserve">
<g><g style="fill:red" transform="translate(0.000000,512.000000) scale(0.100000,-0.100000)"><path d="M2849.3,4967.3c-231.7-122.6-701-524.8-971-831.2l-141.7-164.7l-116.8,11.5c-95.8,7.7-136,1.9-212.6-30.6c-197.3-88.1-283.4-222.2-285.4-444.3v-143.6l-181.9-164.7c-423.3-383-863.7-951.8-838.8-1082.1c30.6-164.7,570.7,210.7,1085.9,754.6l204.9,216.4l116.8-21.1l116.8-21.1l733.5-957.6c404.1-526.7,754.6-988.2,777.6-1026.5c86.2-137.9,105.3-300.7,80.4-641.6c-15.3-227.9-15.3-384.9,0-624.3c23-333.3,11.5-442.4-65.1-603.3c-17.2-32.6-365.8-497.9-777.6-1036.1l-748.8-976.7l-86.2-13.4c-47.9-7.7-97.7-17.2-111.1-23c-13.4-3.8-105.3,80.4-212.6,193.4C700.5-2109.3,133.6-1709,101-1877.5c-24.9-130.2,413.7-695.2,838.8-1082.1l181.9-164.7v-155.1c0-134.1,7.7-164.7,53.6-245.1c99.6-170.5,308.3-268.1,486.5-227.9l76.6,17.2l160.9-180c379.2-425.2,971-888.6,1103.1-863.7c164.7,30.6-206.8,566.9-760.3,1091.7l-226,216.4l21.1,111.1l21.1,111.1l969.1,743.1c532.4,409.8,999.7,758.4,1036.1,777.6c134.1,70.9,220.2,76.6,955.7,74.7c679.9-1.9,723.9-5.7,823.5-44c76.6-28.7,373.5-245.2,1089.7-794.8l986.3-756.5l23-116.8l24.9-116.8L7664-3783.1c-339-337.1-542-584.1-643.5-775.6c-111.1-206.8-72.8-268.1,113-178.1c214.5,105.3,653.1,475,946.1,796.7l164.7,181.9l136,1.9c159,1.9,252.8,40.2,358.1,147.5c90,93.8,139.8,243.2,122.6,373.5l-13.4,90l183.8,160.9c323.7,289.2,718.2,750.8,825.4,971c65.1,132.1,57.5,170.4-34.5,168.5c-147.5-3.8-480.7-258.6-930.8-710.5l-312.2-314.1l-70.9,21.1c-38.3,9.6-90,21.1-113,23c-61.3,7.6-1539.8,1934.3-1597.2,2083.7c-46,114.9-44.1,91.9-44.1,852.3c0,769.9-1.9,737.3,44.1,856.1c30.6,80.4,235.6,362,802.5,1099.3c743.1,967.2,762.2,990.1,831.2,997.8c40.2,3.8,91.9,13.4,114.9,23c36.4,13.4,80.4-23,348.6-294.9c339-339,563-528.6,768-643.5c141.7-80.4,224.1-90,235.6-30.7c24.9,134.1-440.5,727.8-865.7,1105.1l-183.8,162.8l11.5,80.4c7.7,47.9,0,118.8-19.2,181.9c-61.3,212.6-252.8,350.5-471.1,337.1l-111.1-5.7l-172.4,191.5c-390.7,430.9-957.6,873.3-1089.7,848.4c-164.7-30.6,208.8-570.7,756.5-1087.8l218.3-204.9l-21.1-74.7c-11.5-42.1-21.1-95.8-21.1-122.6c-1.9-40.2-153.2-164.7-976.7-794.8c-536.2-409.8-1016.9-766.1-1068.7-791c-157.1-70.9-254.7-80.4-591.8-57.5c-231.7,17.2-381.1,17.2-605.2,0c-329.4-24.9-457.7-11.5-607.1,61.3c-47.9,23-520.9,375.4-1053.3,783.3l-967.2,743.1l-24.9,118.7l-23,116.8l233.7,224.1c340.9,321.7,622.4,656.9,745,884.8C3094.4,5011.3,3040.8,5068.8,2849.3,4967.3z"/></g></g>
</svg>